<svg width="1800" height="1692" viewBox="0 0 1800 1692" fill="none" xmlns="http://www.w3.org/2000/svg">
<g opacity="0.2">
<path d="M1087.01 1122.12L1560.96 1118.88C1657.73 847.752 1620.88 653.126 1485.49 434.28L1087.01 1122.12Z" stroke="black" stroke-opacity="0.7" stroke-width="2"/>
<path d="M756.242 1146.15L997.48 1554.12C1280.48 1501.34 1430.15 1371.59 1551.17 1144.48L756.242 1146.15Z" stroke="black" stroke-opacity="0.7" stroke-width="2"/>
<path d="M568.266 875.863L333.683 1287.7C519.888 1507.25 706.796 1572.84 964.024 1565.27L568.266 875.863Z" stroke="black" stroke-opacity="0.7" stroke-width="2"/>
<path d="M712.482 575.934L238.548 580.865C142.753 852.341 180.294 1046.83 316.465 1265.19L712.482 575.934Z" stroke="black" stroke-opacity="0.7" stroke-width="2"/>
<path d="M1044.03 545.699L802.793 137.726C519.791 190.502 370.125 320.26 249.105 547.368L1044.03 545.699Z" stroke="black" stroke-opacity="0.7" stroke-width="2"/>
<path d="M1233.47 820.56L1466.16 407.655C1278.96 188.956 1091.75 124.221 834.558 132.969L1233.47 820.56Z" stroke="black" stroke-opacity="0.7" stroke-width="2"/>
</g>
</svg>
